<svg viewBox="0 0 162 24" fill="none" xmlns="http://www.w3.org/2000/svg">
<path d="M14.4002 9.59961L19.2002 9.59961L19.2002 4.79961L14.4002 4.79961L14.4002 9.59961Z"/>
<path d="M0.000196457 4.7998L19.2002 4.7998L19.2002 -0.000193596L0.000196877 -0.000195274L0.000196457 4.7998Z"/>
<path d="M4.3202 24L19.2002 24L19.2002 19.2L4.3202 19.2L4.3202 24Z"/>
<path d="M9.60039 14.4004L14.4004 14.4004L14.4004 9.60039L9.60039 9.60039L9.60039 14.4004Z" fill="#2FE82B"/>
<path d="M4.79961 19.2002L9.59961 19.2002L9.59961 14.4002L4.79961 14.4002L4.79961 19.2002Z"/>
<path d="M-0.000196934 24L4.7998 24L4.79981 4.32L-0.000195213 4.32L-0.000196934 24Z"/>
<path d="M19.2 24L24 24L24 0L19.2 -4.1963e-07L19.2 24Z"/>
<path d="M43.7183 22.3789C43.6507 22.1395 43.5954 21.8817 43.5462 21.6055C43.3214 21.8511 43.0723 22.0732 42.8025 22.2685C42.5143 22.4809 42.203 22.66 41.8745 22.8025C41.5078 22.9675 41.1246 23.093 40.7313 23.1769C39.5728 23.4027 38.3758 23.3309 37.2526 22.9682C36.636 22.7662 36.0642 22.4473 35.5686 22.029C35.1047 21.632 34.7316 21.1401 34.4746 20.5865C34.2043 20.0108 34.0698 19.3808 34.0812 18.745C34.0643 17.9697 34.2329 17.2016 34.5729 16.5045C34.9069 15.8429 35.4173 15.2863 36.048 14.8962C36.7198 14.4757 37.4604 14.1765 38.236 14.0123C39.2195 13.8015 40.2233 13.7007 41.2291 13.7115H43.4048V12.8153C43.41 12.4865 43.3537 12.1597 43.2389 11.8515C43.1309 11.57 42.9583 11.3178 42.7349 11.115C42.4783 10.8873 42.1768 10.7159 41.8499 10.6116C41.4519 10.4893 41.037 10.4313 40.6207 10.4397C40.2587 10.4326 39.8978 10.4823 39.5513 10.587C39.28 10.6683 39.0301 10.8088 38.8199 10.9983C38.6523 11.1594 38.524 11.3569 38.445 11.5753C38.3635 11.8165 38.324 12.0698 38.3282 12.3242H34.4377C34.4371 11.6855 34.5843 11.0552 34.8679 10.4827C35.169 9.88432 35.5994 9.36018 36.1279 8.94808C36.7281 8.48019 37.4094 8.12647 38.1377 7.90455C39.0191 7.63294 39.938 7.50241 40.8604 7.51782C41.7263 7.51015 42.589 7.62382 43.4233 7.85547C44.1685 8.0534 44.8692 8.39084 45.4884 8.84989C46.0664 9.29103 46.5335 9.86056 46.8528 10.5134C47.1913 11.2416 47.3594 12.0372 47.3445 12.8399V19.365C47.3326 20.0415 47.384 20.7176 47.4981 21.3845C47.5834 21.8633 47.7344 22.3281 47.9468 22.7657V23.0051H43.9826C43.8735 22.8058 43.7849 22.596 43.7183 22.3789ZM41.3275 20.1445C41.6438 20.0597 41.9491 19.9382 42.2371 19.7824C42.4944 19.6423 42.732 19.4689 42.9439 19.2668C43.1272 19.0861 43.2826 18.8792 43.4048 18.6529V16.0379H41.4074C40.8814 16.029 40.3566 16.0889 39.8463 16.216C39.4676 16.3075 39.1105 16.4722 38.7953 16.7009C38.5286 16.9005 38.3171 17.1646 38.1807 17.4682C38.049 17.7702 37.982 18.0964 37.984 18.4258C37.977 18.6886 38.0252 18.95 38.1254 19.1931C38.2165 19.4297 38.3642 19.6405 38.5556 19.8069C38.763 19.9676 38.9985 20.0884 39.2501 20.163C39.5625 20.259 39.8882 20.3045 40.215 20.298C40.5913 20.3002 40.9659 20.2485 41.3275 20.1445Z"/>
<path d="M57.6395 7.81851H63.3247V10.7036H57.6395V17.2349C57.6267 17.7046 57.691 18.1732 57.8301 18.6221C57.9328 18.9559 58.119 19.2579 58.3709 19.4999C58.6098 19.727 58.9011 19.8915 59.2191 19.9787C59.5839 20.076 59.9601 20.1235 60.3377 20.1199C60.6388 20.1199 60.9523 20.1199 61.2596 20.0769C61.5669 20.034 61.8742 20.0094 62.1692 19.9603C62.4642 19.9112 62.7162 19.8805 62.9621 19.8375C63.2079 19.7946 63.4292 19.7455 63.6074 19.6964L63.9823 22.3789C63.6811 22.5526 63.3616 22.6926 63.0297 22.7963C62.6471 22.9176 62.257 23.014 61.8619 23.0848C61.444 23.1584 61.0199 23.2137 60.5712 23.2566C60.1226 23.2996 59.6862 23.3242 59.256 23.3242C58.4852 23.3337 57.7178 23.2219 56.9819 22.9927C56.3315 22.7889 55.7379 22.4357 55.2487 21.9614C54.7376 21.4694 54.3501 20.8636 54.1178 20.1936C53.8398 19.3631 53.7067 18.491 53.7245 17.6154V10.7036H50.252V7.81851H53.7245V4.09863H57.6395V7.81851Z"/>
<path d="M75.795 1.44043V19.8557H80.1588V23.0354H67.2827V19.8557H71.837V4.63241H67.2827V1.44043H75.795Z"/>
<path d="M92.2541 22.3789C92.1926 22.1395 92.1311 21.8816 92.0881 21.6054C91.8614 21.8513 91.6102 22.0735 91.3383 22.2684C91.0509 22.4821 90.7395 22.6613 90.4102 22.8024C90.0457 22.9674 89.6645 23.0929 89.2732 23.1769C88.8322 23.2656 88.3832 23.3088 87.9334 23.3058C87.2045 23.3143 86.4793 23.2002 85.7884 22.9682C85.173 22.7676 84.603 22.4485 84.1105 22.029C83.6452 21.6318 83.2701 21.14 83.0103 20.5865C82.7401 20.0107 82.6055 19.3807 82.617 18.7449C82.6031 17.97 82.7715 17.2025 83.1087 16.5044C83.4444 15.8441 83.9545 15.288 84.5837 14.8961C85.2563 14.4772 85.9967 14.1781 86.7717 14.0122C87.7553 13.8021 88.7591 13.7012 89.7649 13.7114H91.9468V12.8152C91.9529 12.4858 91.8945 12.1584 91.7747 11.8515C91.6697 11.5684 91.4966 11.3155 91.2707 11.1149C91.0168 10.8868 90.7172 10.7152 90.3918 10.6115C89.9938 10.4892 89.5789 10.4312 89.1626 10.4396C88.8005 10.4316 88.4395 10.4814 88.0931 10.587C87.8201 10.6683 87.5683 10.8088 87.3556 10.9983C87.1898 11.1596 87.0635 11.3571 86.9869 11.5753C86.9033 11.816 86.8617 12.0693 86.8639 12.3241H82.955C82.9512 11.685 83.0986 11.054 83.3853 10.4826C83.6844 9.883 84.1151 9.35846 84.6452 8.94801C85.2428 8.47948 85.9221 8.12565 86.6488 7.90447C87.5304 7.63337 88.4493 7.50285 89.3715 7.51775C90.2395 7.51006 91.1042 7.62373 91.9406 7.85539C92.6839 8.05334 93.3826 8.39082 93.9995 8.84981C94.5808 9.2876 95.0486 9.85797 95.364 10.5133C95.7054 11.2405 95.8737 12.0368 95.8557 12.8398V19.3649C95.8454 20.0416 95.8989 20.7178 96.0155 21.3844C96.0979 21.8639 96.249 22.3291 96.4641 22.7656V23.005H92.4937C92.3956 22.8037 92.3154 22.5942 92.2541 22.3789ZM89.8632 20.1445C90.1815 20.0596 90.4888 19.9381 90.779 19.7823C91.0334 19.6407 91.2688 19.4674 91.4796 19.2667C91.6647 19.0861 91.8221 18.8793 91.9468 18.6528V16.0379H89.9493C89.4234 16.0289 88.8985 16.0888 88.3882 16.2159C88.0072 16.3062 87.6479 16.471 87.331 16.7008C87.0678 16.9039 86.857 17.167 86.7164 17.4681C86.5848 17.7702 86.5178 18.0963 86.5198 18.4257C86.5186 18.6898 86.573 18.9513 86.6796 19.193C86.773 19.4284 86.9203 19.6386 87.1098 19.8069C87.3201 19.9665 87.5574 20.0871 87.8104 20.1629C88.1207 20.2589 88.4444 20.3044 88.7692 20.2979C89.1393 20.2988 89.5077 20.2471 89.8632 20.1445Z"/>
<path d="M99.814 7.8183H103.36L103.6 9.92991C103.792 9.65348 104.008 9.39468 104.245 9.1565C104.476 8.93218 104.725 8.72689 104.989 8.54266C105.441 8.22314 105.941 7.97664 106.47 7.81219C107.025 7.62777 107.606 7.53245 108.191 7.52981C108.908 7.52064 109.621 7.63484 110.299 7.86741C110.931 8.08356 111.501 8.45015 111.959 8.93549C112.451 9.48464 112.818 10.1339 113.034 10.8384C113.312 11.7511 113.443 12.7022 113.421 13.6559V23.017H109.512V13.7235C109.526 13.2206 109.458 12.7188 109.31 12.238C109.207 11.8936 109.014 11.5831 108.75 11.339C108.486 11.0949 108.162 10.9262 107.81 10.8507C107.408 10.7536 106.995 10.7082 106.581 10.7156C106.232 10.7122 105.885 10.7556 105.548 10.8446C105.248 10.92 104.963 11.0467 104.706 11.219C104.511 11.3418 104.331 11.4882 104.172 11.6548C104.012 11.8314 103.866 12.0203 103.735 12.2196V23.0293H99.814V7.8183Z"/>
<path d="M123.175 7.81851H128.86V10.7036H123.175V17.2349C123.163 17.7041 123.225 18.1723 123.359 18.6221C123.464 18.9564 123.652 19.2585 123.906 19.4999C124.145 19.727 124.436 19.8915 124.754 19.9787C125.119 20.076 125.495 20.1235 125.873 20.1199C126.174 20.1199 126.488 20.1199 126.795 20.0769C127.102 20.034 127.41 20.0094 127.705 19.9603C128 19.9112 128.252 19.8805 128.497 19.8375C128.743 19.7946 128.958 19.7455 129.112 19.6964L129.493 22.3789C129.19 22.5537 128.869 22.6937 128.534 22.7963C128.152 22.919 127.762 23.0154 127.367 23.0848C126.955 23.1584 126.524 23.2137 126.082 23.2566C125.639 23.2996 125.197 23.3242 124.767 23.3242C123.996 23.3337 123.229 23.2219 122.493 22.9927C121.84 22.7889 121.245 22.4358 120.753 21.9614C120.246 21.4673 119.861 20.862 119.629 20.1936C119.348 19.3638 119.214 18.4912 119.235 17.6154V10.7036H115.763V7.81851H119.254V4.09863H123.169L123.175 7.81851Z"/>
<path d="M135.885 22.7282C134.969 22.3732 134.133 21.839 133.427 21.1568C132.742 20.5006 132.204 19.7079 131.847 18.8303C131.47 17.9197 131.28 16.9429 131.288 15.9575V15.3928C131.275 14.3085 131.461 13.2311 131.835 12.2131C132.179 11.3012 132.701 10.4666 133.371 9.75776C134.029 9.06233 134.825 8.51056 135.707 8.13721C137.591 7.38688 139.69 7.37592 141.582 8.10652C142.414 8.44967 143.16 8.96908 143.77 9.62884C144.378 10.3186 144.838 11.1249 145.123 11.9983C145.441 12.9897 145.597 14.0263 145.583 15.0675V16.7248H135.233V16.7371C135.33 17.2478 135.5 17.7419 135.737 18.2042C135.962 18.579 136.249 18.9131 136.586 19.1925C136.95 19.5023 137.366 19.7454 137.815 19.9107C138.298 20.0811 138.808 20.1663 139.321 20.1624C140.088 20.1626 140.847 20.0146 141.558 19.7265C142.254 19.4585 142.863 19.0066 143.322 18.4191L145.276 20.5245C144.648 21.3391 143.838 21.995 142.91 22.4397C141.723 23.0349 140.408 23.328 139.081 23.293C137.989 23.3135 136.904 23.1217 135.885 22.7282ZM137.403 10.9302C137.041 11.086 136.715 11.3137 136.444 11.5993C136.155 11.9063 135.918 12.2589 135.744 12.6428C135.545 13.0708 135.402 13.5227 135.32 13.9871H141.736V13.6679C141.738 13.2686 141.663 12.8726 141.515 12.5016C141.37 12.1477 141.162 11.8231 140.9 11.544C140.62 11.2809 140.293 11.0727 139.935 10.9302C139.516 10.7707 139.069 10.6936 138.62 10.7031C138.203 10.6955 137.789 10.7728 137.403 10.9302Z"/>
<path d="M157.617 18.2351C157.47 18.0225 157.274 17.8479 157.046 17.7256C156.69 17.5491 156.317 17.4093 155.933 17.3082C155.359 17.1478 154.776 17.0167 154.188 16.9154C153.353 16.7531 152.531 16.5295 151.729 16.2463C151.056 16.0101 150.419 15.6816 149.836 15.2703C149.339 14.9257 148.92 14.4801 148.607 13.9628C148.301 13.4446 148.146 12.8516 148.159 12.2502C148.16 11.6205 148.316 11.0008 148.613 10.4455C148.929 9.85837 149.37 9.34721 149.904 8.94772C150.525 8.48611 151.221 8.13705 151.963 7.91647C152.848 7.65449 153.769 7.52825 154.692 7.54203C155.655 7.52947 156.615 7.65346 157.544 7.91032C158.316 8.12462 159.045 8.46927 159.701 8.92932C160.256 9.34351 160.712 9.87615 161.035 10.4885C161.348 11.0933 161.509 11.7656 161.502 12.4466H157.605C157.606 12.2039 157.565 11.9628 157.482 11.7345C157.397 11.5068 157.267 11.2982 157.101 11.1207C156.82 10.8771 156.488 10.6989 156.13 10.599C155.666 10.4484 155.18 10.3778 154.692 10.3902C154.278 10.3836 153.865 10.4311 153.463 10.5314C153.149 10.604 152.852 10.7375 152.59 10.9243C152.393 11.0612 152.231 11.2419 152.117 11.4522C152.015 11.6412 151.961 11.8517 151.957 12.066C151.959 12.2785 152.007 12.488 152.098 12.6799C152.214 12.8941 152.389 13.0707 152.602 13.1893C152.904 13.3782 153.231 13.5229 153.573 13.619C154.09 13.7703 154.619 13.8811 155.153 13.9505C156.017 14.0879 156.871 14.2806 157.71 14.5276C158.428 14.7296 159.115 15.0312 159.75 15.4237C160.294 15.771 160.753 16.2343 161.096 16.7803C161.432 17.3526 161.601 18.0078 161.582 18.671C161.584 19.3167 161.417 19.9518 161.096 20.5125C160.754 21.0971 160.286 21.5982 159.726 21.9796C159.061 22.4188 158.328 22.7445 157.556 22.9433C156.633 23.1813 155.682 23.2969 154.729 23.287C153.701 23.3041 152.677 23.1506 151.699 22.8328C150.898 22.5762 150.15 22.1769 149.492 21.6542C148.931 21.2236 148.47 20.6771 148.14 20.0521C147.844 19.4828 147.686 18.852 147.679 18.2106H151.41C151.428 18.5879 151.545 18.9539 151.748 19.2725C151.942 19.5667 152.203 19.8107 152.51 19.9846C152.838 20.176 153.195 20.3128 153.567 20.3897C153.971 20.4759 154.383 20.5191 154.796 20.5186C155.243 20.5257 155.688 20.4804 156.124 20.3836C156.453 20.3166 156.768 20.1964 157.058 20.0275C157.273 19.8977 157.454 19.7189 157.587 19.5058C157.699 19.3205 157.761 19.1087 157.765 18.892C157.778 18.6636 157.727 18.4361 157.617 18.2351Z"/>
</svg>
